<?xml version="1.0" standalone="no"?>
<!DOCTYPE svg PUBLIC "-//W3C//DTD SVG 20010904//EN"
 "http://www.w3.org/TR/2001/REC-SVG-20010904/DTD/svg10.dtd">
<svg version="1.0" xmlns="http://www.w3.org/2000/svg" class="text-green-600"
 width="980" height="980" viewBox="0 0 980 980"
 preserveAspectRatio="xMidYMid meet">

<g transform="translate(0.000000,980.000000) scale(0.100000,-0.100000)"
fill="currentColor" stroke="none">
<path d="M4533 8930 c-626 -39 -1223 -170 -1773 -390 -179 -71 -399 -177 -517
-248 -98 -59 -303 -202 -303 -211 0 -3 58 -32 128 -63 600 -269 1317 -474
2022 -579 80 -12 157 -27 172 -35 15 -8 31 -28 38 -48 14 -45 12 -51 -150
-342 -72 -130 -130 -237 -128 -239 2 -2 35 7 73 21 384 140 966 123 1525 -42
47 -14 166 -52 265 -84 542 -178 1203 -315 2025 -420 291 -37 622 -71 629 -65
10 11 -137 344 -230 523 -355 681 -833 1221 -1429 1614 -511 336 -1076 545
-1620 598 -145 14 -568 20 -727 10z"/>
<path d="M1672 7844 c-338 -343 -587 -760 -726 -1219 -66 -214 -119 -522 -146
-845 l-12 -135 61 -127 c256 -542 623 -1093 1062 -1593 131 -150 443 -465 604
-611 656 -593 1417 -1105 2300 -1546 199 -100 228 -111 560 -216 193 -61 449
-142 570 -181 121 -38 342 -108 490 -154 149 -47 456 -144 683 -216 466 -147
508 -156 651 -127 161 33 260 94 442 276 241 240 396 494 593 972 78 191 146
381 146 411 0 7 -56 28 -142 51 -1703 466 -3280 1010 -4046 1395 -501 252
-759 777 -643 1308 74 339 295 629 598 786 178 92 308 126 508 134 195 7 267
-7 623 -127 894 -299 1611 -448 2362 -491 187 -11 514 -9 526 3 4 5 -81 297
-105 359 -8 24 -17 28 -68 33 -32 3 -170 17 -308 32 -593 60 -1246 165 -1740
279 -252 58 -446 112 -701 195 -377 124 -645 181 -941 202 -431 31 -817 -65
-1031 -256 -34 -31 -74 -59 -87 -62 -31 -8 -81 12 -100 40 -34 47 -23 74 185
446 110 197 202 364 205 372 5 12 -16 18 -102 32 -694 113 -1421 329 -1988
593 -88 41 -166 77 -173 80 -7 3 -54 -37 -110 -93z m220 -287 c86 -59 406
-329 416 -352 15 -34 15 -40 -4 -80 -18 -38 -61 -60 -103 -52 -18 4 -101 65
-205 151 -97 80 -189 155 -205 167 -56 41 -64 114 -18 156 42 39 72 41 119 10z
m-319 -358 c27 -15 395 -314 420 -341 10 -12 17 -36 17 -60 0 -72 -72 -119
-133 -86 -30 15 -398 316 -419 342 -33 40 -18 109 30 139 32 20 55 21 85 6z"/>
<path d="M5200 6013 c-280 -21 -555 -171 -719 -392 -63 -85 -134 -232 -163
-336 -18 -66 -22 -108 -22 -245 -1 -145 2 -175 23 -250 67 -239 205 -432 404
-564 198 -131 843 -403 1567 -659 283 -100 693 -238 697 -233 6 6 42 286 59
466 21 231 31 940 15 1191 -13 216 -39 491 -50 534 -6 24 -14 31 -47 38 -329
71 -749 188 -1149 322 -171 57 -337 108 -370 113 -75 13 -186 20 -245 15z
m345 -438 c213 -55 375 -225 421 -445 51 -242 -82 -506 -309 -614 -273 -130
-582 -36 -737 224 -97 163 -104 359 -19 537 63 132 224 263 365 297 79 19 206
19 279 1z"/>
<path d="M5327 5389 c-105 -25 -204 -106 -254 -207 -25 -51 -28 -68 -28 -157
0 -90 3 -106 29 -159 73 -149 238 -236 393 -207 125 23 225 96 278 205 38 77
46 188 19 271 -56 180 -257 296 -437 254z"/>
<path d="M7213 5489 c10 -43 37 -360 47 -568 24 -483 5 -957 -56 -1445 -14
-109 -22 -202 -17 -206 7 -7 338 -111 678 -214 158 -47 756 -219 983 -281 73
-20 135 -35 138 -33 24 24 33 847 14 1185 -28 468 -88 916 -178 1333 l-27 125
-315 1 c-323 2 -521 15 -824 55 -139 18 -350 51 -420 65 -26 6 -28 4 -23 -17z"/>
<path d="M787 5123 c23 -619 153 -1333 357 -1954 45 -137 124 -248 230 -324
82 -58 113 -71 383 -155 125 -39 311 -98 413 -130 102 -32 259 -82 350 -110
91 -29 212 -67 270 -85 58 -19 344 -108 635 -200 292 -91 536 -168 543 -170
30 -10 3 8 -125 86 -351 212 -790 523 -1108 783 -795 650 -1453 1426 -1880
2219 -32 59 -61 107 -64 107 -3 0 -5 -30 -4 -67z"/>
</g>
</svg>
