<?xml version="1.0" standalone="no"?>
<!DOCTYPE svg PUBLIC "-//W3C//DTD SVG 20010904//EN"
 "http://www.w3.org/TR/2001/REC-SVG-20010904/DTD/svg10.dtd">
<svg version="1.0" xmlns="http://www.w3.org/2000/svg"
 width="279.000000pt" height="197.000000pt" viewBox="0 0 279.000000 197.000000"
 preserveAspectRatio="xMidYMid meet">

<g transform="translate(0.000000,197.000000) scale(0.100000,-0.100000)"
fill="#000000" stroke="none">
<path d="M0 985 l0 -985 1395 0 1395 0 0 985 0 985 -1395 0 -1395 0 0 -985z
m1479 695 c110 -71 330 -212 526 -336 306 -194 560 -357 568 -364 5 -4 -45
-41 -110 -82 -65 -41 -257 -164 -428 -273 -170 -109 -377 -240 -460 -293 -82
-52 -157 -99 -166 -105 -13 -8 -35 2 -100 45 -82 53 -226 145 -468 298 -442
280 -631 404 -624 410 11 10 437 282 935 597 106 67 202 129 213 137 11 8 24
16 29 16 4 0 43 -22 85 -50z"/>
<path d="M1261 1454 c-30 -8 -77 -27 -105 -42 -61 -33 -163 -131 -193 -187
l-22 -41 152 0 c281 1 480 -58 703 -210 l94 -63 0 73 c0 212 -143 403 -349
466 -76 24 -200 26 -280 4z m299 -324 c0 -5 -4 -10 -10 -10 -5 0 -10 5 -10 10
0 6 5 10 10 10 6 0 10 -4 10 -10z"/>
<path d="M987 1110 c-38 -5 -72 -11 -75 -15 -4 -4 -7 -59 -7 -123 1 -98 4
-126 23 -174 50 -125 167 -242 290 -288 71 -27 205 -37 284 -21 139 29 275
135 338 265 l34 69 -34 29 c-224 191 -567 294 -853 258z m10 -56 c-9 -9 -28 6
-21 18 4 6 10 6 17 -1 6 -6 8 -13 4 -17z m543 -54 c0 -5 -5 -10 -11 -10 -5 0
-7 5 -4 10 3 6 8 10 11 10 2 0 4 -4 4 -10z m-333 -52 c-3 -8 -6 -5 -6 6 -1 11
2 17 5 13 3 -3 4 -12 1 -19z m197 -59 c-3 -5 -10 -7 -15 -3 -5 3 -7 10 -3 15
3 5 10 7 15 3 5 -3 7 -10 3 -15z m-368 -46 c-10 -10 -19 5 -10 18 6 11 8 11
12 0 2 -7 1 -15 -2 -18z m424 7 c0 -5 -4 -10 -10 -10 -5 0 -10 5 -10 10 0 6 5
10 10 10 6 0 10 -4 10 -10z m-480 -40 c0 -5 -4 -10 -10 -10 -5 0 -10 5 -10 10
0 6 5 10 10 10 6 0 10 -4 10 -10z m165 0 c3 -5 1 -10 -4 -10 -6 0 -11 5 -11
10 0 6 2 10 4 10 3 0 8 -4 11 -10z m615 -11 c0 -5 -7 -9 -15 -9 -15 0 -20 12
-9 23 8 8 24 -1 24 -14z m-359 -52 c-13 -13 -26 -3 -16 12 3 6 11 8 17 5 6 -4
6 -10 -1 -17z m-191 -31 c0 -11 -19 -15 -25 -6 -3 5 1 10 9 10 9 0 16 -2 16
-4z m440 -16 c0 -5 -2 -10 -4 -10 -3 0 -8 5 -11 10 -3 6 -1 10 4 10 6 0 11 -4
11 -10z m4 -51 c-3 -5 -10 -7 -15 -3 -5 3 -7 10 -3 15 3 5 10 7 15 3 5 -3 7
-10 3 -15z m-104 -9 c0 -5 -2 -10 -4 -10 -3 0 -8 5 -11 10 -3 6 -1 10 4 10 6
0 11 -4 11 -10z"/>
</g>
</svg>
